<?xml version="1.0" encoding="utf-8"?>
<!-- Generator: Adobe Illustrator 22.0.1, SVG Export Plug-In . SVG Version: 6.00 Build 0)  -->
<svg version="1.1" id="Laag_1" xmlns="http://www.w3.org/2000/svg" xmlns:xlink="http://www.w3.org/1999/xlink" x="0px" y="0px"
	 viewBox="0 0 50 50" style="enable-background:new 0 0 50 50;" xml:space="preserve">
<style type="text/css">
	.st0{fill:#A1C520;}
	.st1{fill:#D3C1B9;}
	.st2{fill:#BD0D19;}
	.st3{fill:#673C17;}
	.st4{fill:#007D50;}
</style>
<g>
	<g>
		<polygon class="st0" points="44.7,14.6 29.9,27.9 30.1,28.1 44.7,15.1 		"/>
		
			<rect x="37.1" y="33.6" transform="matrix(0.7055 -0.7087 0.7087 0.7055 -11.8432 39.0328)" class="st1" width="7.9" height="0.4"/>
		<rect x="9.4" y="11.9" transform="matrix(0.9368 -0.3498 0.3498 0.9368 -7.9493 4.9163)" class="st0" width="0.4" height="25.1"/>
		
			<rect x="1.2" y="21.5" transform="matrix(0.6933 -0.7207 0.7207 0.6933 -13.4239 11.7808)" class="st2" width="11.9" height="0.3"/>
		<rect x="38.1" y="36.4" class="st3" width="0.3" height="6.1"/>
		<polygon class="st4" points="3,19.5 3,19.2 11.1,17.2 11.2,17.5 		"/>
		<polygon class="st3" points="23.8,16.1 23.5,16.1 24.3,2.9 24.6,2.9 		"/>
		
			<rect x="29.7" y="26.1" transform="matrix(0.9513 -0.3084 0.3084 0.9513 -6.3553 12.2548)" class="st3" width="11.7" height="0.3"/>
	</g>
	<g>
		<path class="st3" d="M17.2,30.7c-0.1,0-0.1-0.1-0.2-0.1c0-0.1,0-0.2,0.1-0.2l12.8-2.6c0.1,0,0.2,0,0.2,0.1c0,0.1,0,0.2-0.1,0.2
			L17.2,30.7L17.2,30.7"/>
		<path class="st4" d="M30,28.1L30,28.1c-0.2-0.1-0.2-0.2-0.1-0.2l7.3-15.2c0-0.1,0.1-0.1,0.2-0.1c0.1,0,0.1,0.1,0.1,0.2l-7.3,15.2
			C30.1,28.1,30.1,28.1,30,28.1"/>
		<path class="st4" d="M41.1,24.5c-0.1,0-0.1,0-0.2-0.1l-3.8-11.6c0-0.1,0-0.2,0.1-0.2s0.2,0,0.2,0.1l3.8,11.6
			C41.3,24.4,41.2,24.5,41.1,24.5L41.1,24.5"/>
		<path class="st3" d="M15.8,12.4L15.8,12.4c-0.2-0.1-0.2-0.2-0.1-0.2l8.7-9.5c0.1-0.1,0.2-0.1,0.2,0c0.1,0.1,0.1,0.2,0,0.2
			L15.8,12.4C15.9,12.4,15.9,12.4,15.8,12.4"/>
		<path class="st3" d="M15.6,24.7L15.6,24.7c-0.1,0-0.2-0.1-0.2-0.2l0.4-12.3c0-0.1,0.1-0.2,0.2-0.2c0.1,0,0.2,0.1,0.2,0.2
			L15.6,24.7C15.6,24.7,15.6,24.7,15.6,24.7"/>
		<path class="st3" d="M20.8,37c-0.1,0-0.1,0-0.2-0.1c0-0.1,0-0.2,0.1-0.2l6.2-2.3c0.1,0,0.2,0,0.2,0.1c0,0.1,0,0.2-0.1,0.2L20.8,37
			L20.8,37"/>
	</g>
	<g>
		<polygon class="st4" points="23.6,16.3 15.8,12.4 15.9,12.1 23.7,16.1 		"/>
		<rect x="23.6" y="15.4" transform="matrix(0.9839 -0.1788 0.1788 0.9839 -2.3513 5.0989)" class="st2" width="7" height="0.3"/>
	</g>
	<g>
		<path class="st4" d="M32.7,40.4c-0.1,0-0.1-0.1-0.2-0.1l-2.7-12.2c0-0.1,0-0.2,0.1-0.2c0.1,0,0.2,0,0.2,0.1l2.8,12.2
			C32.9,40.3,32.9,40.4,32.7,40.4C32.8,40.4,32.8,40.4,32.7,40.4"/>
	</g>
	<g>
		<rect x="29.1" y="35" transform="matrix(0.3251 -0.9457 0.9457 0.3251 -9.934 56.2895)" class="st2" width="10.8" height="0.3"/>
		
			<rect x="40.4" y="27.6" transform="matrix(0.5493 -0.8356 0.8356 0.5493 -9.1602 48.7238)" class="st2" width="0.3" height="10.5"/>
		<rect x="12.4" y="7.9" transform="matrix(0.1683 -0.9857 0.9857 0.1683 5.8511 23.1118)" class="st2" width="8.5" height="0.3"/>
		
			<rect x="24.5" y="23.5" transform="matrix(0.9109 -0.4125 0.4125 0.9109 -10.0695 12.8292)" class="st3" width="0.3" height="12.4"/>
		
			<rect x="14.3" y="36.1" transform="matrix(0.9961 -8.839121e-02 8.839121e-02 0.9961 -3.5152 1.4323)" class="st2" width="0.3" height="8.6"/>
		<rect x="36.1" y="5.7" transform="matrix(0.9562 -0.2926 0.2926 0.9562 -1.1326 11.0222)" class="st2" width="0.3" height="7.2"/>
		
			<rect x="35.6" y="12.6" transform="matrix(0.6614 -0.7501 0.7501 0.6614 -2.6749 33.5217)" class="st3" width="0.3" height="14.2"/>
	</g>
	<path d="M46.9,18c-1.6,0-2.8,1.3-2.8,2.8c0,0.7,0.2,1.3,0.6,1.7l-8.6,7.4l0.2,0.2l8.6-7.4c0.5,0.5,1.2,0.8,2,0.8
		c1.6,0,2.8-1.3,2.8-2.8C49.7,19.3,48.4,18,46.9,18"/>
	<path d="M28.9,24.6c1.6,0,2.8-1.3,2.8-2.8c0-1.6-1.3-2.8-2.8-2.8c-1.6,0-2.8,1.3-2.8,2.8c0,0.3,0,0.5,0.1,0.8L22.1,24l0.1,0.3
		l4.1-1.4C26.8,23.8,27.8,24.6,28.9,24.6"/>
	<path d="M31.5,43.4c-0.3,0-0.6,0.1-0.9,0.1l-3.5-9.1c0-0.1-0.1-0.1-0.2-0.1c-0.1,0-0.1,0.1-0.1,0.2l3.5,9.2c-1,0.4-1.6,1.4-1.6,2.6
		c0,1.6,1.3,2.8,2.8,2.8c1.6,0,2.8-1.3,2.8-2.8C34.3,44.7,33,43.4,31.5,43.4"/>
	<path class="st4" d="M14,17.3c0,1.6-1.3,2.8-2.8,2.8c-1.6,0-2.8-1.3-2.8-2.8c0-1.6,1.3-2.8,2.8-2.8S14,15.8,14,17.3"/>
	<path class="st2" d="M20.2,3.8c0,1.6-1.3,2.8-2.8,2.8c-1.6,0-2.8-1.3-2.8-2.8c0-1.6,1.3-2.8,2.8-2.8C18.9,1.1,20.2,2.4,20.2,3.8"/>
	<path class="st2" d="M17.6,44.8c0,1.6-1.3,2.8-2.8,2.8c-1.6,0-2.8-1.3-2.8-2.8c0-1.6,1.3-2.8,2.8-2.8S17.6,43.2,17.6,44.8"/>
	<path class="st4" d="M40.1,12.8c0,1.6-1.3,2.8-2.8,2.8c-1.6,0-2.8-1.3-2.8-2.8c0-1.6,1.3-2.8,2.8-2.8C38.9,10,40.1,11.2,40.1,12.8"
		/>
	<path class="st4" d="M26.4,16.1c0,1.6-1.3,2.8-2.8,2.8c-1.6,0-2.8-1.3-2.8-2.8c0-1.6,1.3-2.8,2.8-2.8
		C25.2,13.4,26.4,14.6,26.4,16.1"/>
	<path class="st3" d="M27.4,2.8c0,1.6-1.3,2.8-2.8,2.8c-1.6,0-2.8-1.3-2.8-2.8C21.8,1.3,23,0,24.6,0C26.1,0,27.4,1.3,27.4,2.8"/>
	<path class="st3" d="M43.9,24.3c0,1.6-1.3,2.8-2.8,2.8c-1.6,0-2.8-1.3-2.8-2.8c0-1.6,1.3-2.8,2.8-2.8
		C42.7,21.6,43.9,22.8,43.9,24.3"/>
	<path class="st2" d="M39,29.9c0,1.6-1.3,2.8-2.8,2.8c-1.6,0-2.8-1.3-2.8-2.8c0-1.6,1.3-2.8,2.8-2.8C37.8,27.2,39,28.3,39,29.9"/>
	<path class="st1" d="M6.1,19.2c0,1.6-1.3,2.8-2.8,2.8c-1.6,0-2.8-1.3-2.8-2.8c0-1.6,1.3-2.8,2.8-2.8S6.1,17.7,6.1,19.2"/>
	<path class="st1" d="M32.4,8.3c0,1.6-1.3,2.8-2.8,2.8c-1.6,0-2.8-1.3-2.8-2.8c0-1.6,1.3-2.8,2.8-2.8C31.1,5.4,32.4,6.7,32.4,8.3"/>
	<path class="st1" d="M13.6,7.8c0,1.6-1.3,2.8-2.8,2.8c-1.6,0-2.8-1.3-2.8-2.8C8.1,6.2,9.4,5,10.8,5C12.3,5,13.6,6.2,13.6,7.8"/>
	<path class="st1" d="M18.3,24.5c0,1.6-1.3,2.8-2.8,2.8c-1.6,0-2.8-1.3-2.8-2.8c0-1.6,1.3-2.8,2.8-2.8S18.3,23,18.3,24.5"/>
	<path class="st1" d="M47.8,29.6c0,1.6-1.3,2.8-2.8,2.8c-1.6,0-2.8-1.3-2.8-2.8c0-1.6,1.3-2.8,2.8-2.8
		C46.6,26.8,47.8,28.1,47.8,29.6"/>
	<path class="st0" d="M8.2,13.2c0,1.6-1.3,2.8-2.8,2.8c-1.6,0-2.8-1.3-2.8-2.8c0-1.6,1.3-2.8,2.8-2.8C7,10.4,8.2,11.6,8.2,13.2"/>
	<path class="st0" d="M12,40.7c0,1.6-1.3,2.8-2.8,2.8c-1.6,0-2.8-1.3-2.8-2.8c0-1.6,1.3-2.8,2.8-2.8C10.8,38,12,39.3,12,40.7"/>
	<path class="st0" d="M23.5,36.8c0,1.6-1.3,2.8-2.8,2.8c-1.6,0-2.8-1.3-2.8-2.8c0-1.6,1.3-2.8,2.8-2.8C22.2,34,23.5,35.2,23.5,36.8"
		/>
	<path class="st0" d="M47.4,14.9c0,1.6-1.3,2.8-2.8,2.8c-1.6,0-2.8-1.3-2.8-2.8c0-1.6,1.3-2.8,2.8-2.8
		C46.2,12.1,47.4,13.4,47.4,14.9"/>
	<path class="st0" d="M24.9,24.1c0,1.6-1.3,2.8-2.8,2.8c-1.6,0-2.8-1.3-2.8-2.8c0-1.6,1.3-2.8,2.8-2.8
		C23.7,21.3,24.9,22.5,24.9,24.1"/>
	<path class="st0" d="M28,47.2c0,1.6-1.3,2.8-2.8,2.8c-1.6,0-2.8-1.3-2.8-2.8c0-1.6,1.3-2.8,2.8-2.8C26.8,44.5,28,45.7,28,47.2"/>
	<path class="st4" d="M47.8,35.7c0,1.6-1.3,2.8-2.8,2.8c-1.6,0-2.8-1.3-2.8-2.8c0-1.6,1.3-2.8,2.8-2.8
		C46.6,32.9,47.8,34.2,47.8,35.7"/>
	<path class="st2" d="M38,5.8c0,1.6-1.3,2.8-2.8,2.8c-1.6,0-2.8-1.3-2.8-2.8c0-1.6,1.3-2.8,2.8-2.8C36.7,3,38,4.2,38,5.8"/>
	<g>
		<rect x="13.1" y="6.5" transform="matrix(0.6606 -0.7507 0.7507 0.6606 -2.9475 13.3157)" class="st1" width="0.4" height="6.9"/>
		<polygon class="st1" points="5.3,34.8 5.1,34.6 14.1,25.8 14.3,26.1 		"/>
		<rect x="29.8" y="7.5" transform="matrix(0.9907 -0.1363 0.1363 0.9907 -1.255 4.1966)" class="st1" width="0.4" height="7.6"/>
		<rect x="7.2" y="34.6" transform="matrix(0.8256 -0.5642 0.5642 0.8256 -20.2174 10.8324)" class="st0" width="0.4" height="7"/>
		
			<rect x="21" y="39.6" transform="matrix(0.1362 -0.9907 0.9907 0.1362 -16.7698 60.3465)" class="st0" width="10.5" height="0.4"/>
		
			<rect x="18.7" y="11.3" transform="matrix(0.8831 -0.4691 0.4691 0.8831 -6.2253 10.962)" class="st0" width="0.4" height="13.3"/>
		<polygon class="st0" points="37.1,41.8 37,42.1 32.7,40.4 32.8,40.1 		"/>
		<polygon class="st0" points="24.6,46.4 24.3,46.7 20.6,43.1 20.8,42.8 		"/>
	</g>
	<g>
		<path class="st3" d="M18.7,12.2c0,1.6-1.3,2.8-2.8,2.8c-1.6,0-2.8-1.3-2.8-2.8c0-1.6,1.3-2.8,2.8-2.8
			C17.4,9.4,18.7,10.7,18.7,12.2"/>
		<path class="st4" d="M32.8,28c0,1.6-1.3,2.8-2.8,2.8c-1.6,0-2.8-1.3-2.8-2.8c0-1.6,1.3-2.8,2.8-2.8C31.6,25.2,32.8,26.5,32.8,28"
			/>
		<path class="st2" d="M33.3,15c0,1.6-1.3,2.8-2.8,2.8c-1.6,0-2.8-1.3-2.8-2.8c0-1.6,1.3-2.8,2.8-2.8C32,12.2,33.3,13.4,33.3,15"/>
		<path class="st2" d="M16.8,36.1c0,1.6-1.3,2.8-2.8,2.8c-1.6,0-2.8-1.3-2.8-2.8c0-1.6,1.3-2.8,2.8-2.8
			C15.6,33.4,16.8,34.6,16.8,36.1"/>
		<path class="st3" d="M29.7,34.5c0,1.6-1.3,2.8-2.8,2.8c-1.6,0-2.8-1.3-2.8-2.8c0-1.6,1.3-2.8,2.8-2.8C28.4,31.7,29.7,33,29.7,34.5
			"/>
		<path class="st3" d="M41,36.3c0,1.6-1.3,2.8-2.8,2.8c-1.6,0-2.8-1.3-2.8-2.8c0-1.6,1.3-2.8,2.8-2.8C39.8,33.6,41,34.8,41,36.3"/>
		<path class="st1" d="M35.5,40.2c0,1.6-1.3,2.8-2.8,2.8c-1.6,0-2.8-1.3-2.8-2.8c0-1.6,1.3-2.8,2.8-2.8
			C34.3,37.4,35.5,38.7,35.5,40.2"/>
		<path class="st0" d="M41,42.4c0,1.6-1.3,2.9-2.8,2.9c-1.6,0-2.8-1.3-2.8-2.9s1.3-2.9,2.8-2.9C39.8,39.6,41,40.8,41,42.4"/>
		<path class="st4" d="M23.5,43c0,1.6-1.3,2.8-2.8,2.8c-1.6,0-2.8-1.3-2.8-2.8c0-1.6,1.3-2.8,2.8-2.8S23.5,41.4,23.5,43"/>
		<path class="st0" d="M7.9,34.7c0,1.6-1.3,2.8-2.8,2.8c-1.6,0-2.8-1.3-2.8-2.8c0-1.6,1.3-2.8,2.8-2.8C6.7,32,7.9,33.3,7.9,34.7"/>
		<path d="M17.2,27.8c-1.2,0-2.3,0.8-2.7,1.9L2.8,26l-0.1,0.3l11.8,3.6c0,0.2-0.1,0.4-0.1,0.7c0,1.6,1.3,2.8,2.8,2.8
			c1.6,0,2.8-1.3,2.8-2.8C20,28.9,18.7,27.8,17.2,27.8"/>
		<path class="st2" d="M5.5,26c0,1.6-1.3,2.8-2.8,2.8C1.2,28.7,0,27.5,0,26c0-1.6,1.3-2.8,2.8-2.8C4.3,23.2,5.5,24.4,5.5,26"/>
	</g>
</g>
</svg>
